<?xml version="1.0" encoding="UTF-8"?>
<svg width="21px" height="21px" viewBox="0 0 21 21" version="1.1" xmlns="http://www.w3.org/2000/svg" xmlns:xlink="http://www.w3.org/1999/xlink">
    <!-- Generator: Sketch 47.1 (45422) - http://www.bohemiancoding.com/sketch -->
    <title>plus-c-o</title>
    <desc>Created with Sketch.</desc>
    <defs></defs>
    <g id="Page-1" stroke="none" stroke-width="1" fill="none" fill-rule="evenodd">
        <g id="树表-地址" transform="translate(-360.000000, -134.000000)" fill-rule="nonzero" fill="#63696B">
            <g id="Group-7" transform="translate(201.000000, 125.000000)">
                <g id="plus-c-o" transform="translate(159.000000, 9.000000)">
                    <path d="M17.8934491,17.9386358 C16.3032417,19.5320106 14.2525753,20.5655089 11.9870814,20.8915789 C9.21767579,21.2898559 6.45797189,20.5829813 4.2184308,18.9020598 C1.97831663,17.2206461 0.525589883,14.7659953 0.127700304,11.9906681 C-0.693683769,6.25954723 3.29229371,0.929430899 9.0092136,0.105868362 C11.4064983,-0.238781464 13.8646739,0.264494241 15.9312436,1.52166833 C16.2846367,1.73701808 16.3968808,2.19839683 16.1825035,2.55206999 C15.9660998,2.9034873 15.5078719,3.01917037 15.1543356,2.80390265 C13.3841568,1.72586197 11.2773888,1.29477284 9.22183072,1.59069674 C4.32254933,2.29480283 0.906122942,6.86460186 1.60938867,11.7774922 C1.95021465,14.1562034 3.19548211,16.259847 5.11587237,17.7005432 C7.03581235,19.1418135 9.40086057,19.7468887 11.7743414,19.4048638 C16.6789239,18.7006141 20.0938766,14.1303024 19.3894852,9.21843751 C19.2048882,7.93259385 18.7592887,6.73093368 18.0633095,5.64770458 C17.8400697,5.29870716 17.9416298,4.83316536 18.2872247,4.61106864 C18.6348868,4.38679812 19.0984773,4.48755169 19.3217376,4.8354212 C20.1341568,6.10211081 20.6548723,7.50406818 20.8712964,9.00530258 C21.2687971,11.7802197 20.563853,14.5460929 18.884673,16.7906438 C18.5822523,17.1967037 18.2509915,17.5803769 17.8934695,17.9386768 L17.8934491,17.9386358 Z" id="Shape"></path>
                    <path d="M11.3422506,11.1340679 L15.8939926,11.1372466 C16.3072533,11.1379233 16.642287,10.8022763 16.6429419,10.3882084 C16.6435969,9.97397652 16.3080925,9.63779631 15.8952616,9.63763225 L11.3376863,9.63402292 L11.3230724,5.10507492 C11.3210257,4.69041234 10.9860944,4.35572919 10.5722401,4.35777993 C10.1588975,4.35921546 9.82503049,4.69594937 9.82646321,5.11014029 L9.84113847,9.63271044 L5.32169425,9.62983939 C4.90781951,9.62983939 4.57339987,9.96483016 4.57272444,10.3790416 C4.57260163,10.5879315 4.65725549,10.7763138 4.79438824,10.9124429 C4.93436824,11.0513556 5.1233871,11.1293363 5.32040479,11.1294537 L9.84562086,11.1328374 L9.86011191,15.736515 C9.8606236,15.9438463 9.9451956,16.1311417 10.0818166,16.2667581 C10.217926,16.4019028 10.4051224,16.4842201 10.6109443,16.4838304 C11.0242459,16.4823129 11.3576626,16.1461327 11.3567211,15.7315111 L11.3422506,11.1340679 L11.3422506,11.1340679 Z" id="Shape"></path>
                </g>
            </g>
        </g>
    </g>
</svg>