<?xml version="1.0" encoding="UTF-8"?>
<svg width="67px" height="50px" viewBox="0 0 67 50" version="1.1" xmlns="http://www.w3.org/2000/svg" xmlns:xlink="http://www.w3.org/1999/xlink">
    <!-- Generator: Sketch 47.1 (45422) - http://www.bohemiancoding.com/sketch -->
    <title>准备上传</title>
    <desc>Created with Sketch.</desc>
    <defs></defs>
    <g id="Page-1" stroke="none" stroke-width="1" fill="none" fill-rule="evenodd">
        <g id="拖拽上传-copy" transform="translate(-67.000000, -36.000000)" fill="#86939E">
            <g id="准备上传" transform="translate(64.000000, 36.000000)">
                <path d="M40,50 L54,50 L54,49.9925689 C62.8813911,49.7282373 70,42.4454388 70,33.5 C70,24.3873016 62.6126984,17 53.5,17 C53.3301682,17 53.1609357,17.0025658 52.9923391,17.0076609 C52.9974342,16.8390643 53,16.6698318 53,16.5 C53,7.38730163 45.6126984,0 36.5,0 C27.3873016,0 20,7.38730163 20,16.5 C20,16.6698318 20.0025658,16.8390643 20.0076609,17.0076609 C19.8390643,17.0025658 19.6698318,17 19.5,17 C10.3873016,17 3,24.3873016 3,33.5 C3,42.4454388 10.1186089,49.7282373 19,49.9925689 L19,50 L34,50 L34,38.8232422 L25.0776367,38.8232422 L37.0000003,20.7466281 L48.9223633,38.8232422 L40,38.8232422 L40,50 Z"></path>
            </g>
        </g>
    </g>
</svg>