<?xml version="1.0" encoding="UTF-8"?>
<svg width="16px" height="18px" viewBox="0 0 16 18" version="1.1" xmlns="http://www.w3.org/2000/svg" xmlns:xlink="http://www.w3.org/1999/xlink">
    <!-- Generator: Sketch 47.1 (45422) - http://www.bohemiancoding.com/sketch -->
    <title>删除</title>
    <desc>Created with Sketch.</desc>
    <defs></defs>
    <g id="Page-1" stroke="none" stroke-width="1" fill="none" fill-rule="evenodd">
        <g id="树表-地址" transform="translate(-421.000000, -135.000000)" fill-rule="nonzero" fill="#63696B">
            <g id="Group-7" transform="translate(201.000000, 125.000000)">
                <g id="删除" transform="translate(220.000000, 10.000000)">
                    <polygon id="Shape" points="7.4005168 4.44988864 8.72351421 4.44988864 8.72351421 15.4612383 7.4005168 15.4612383"></polygon>
                    <polygon id="Shape" points="4.28551938 4.44988864 5.6085168 4.44988864 5.6085168 15.4612383 4.28551938 15.4612383"></polygon>
                    <polygon id="Shape" points="10.5148527 4.44988864 11.8378501 4.44988864 11.8378501 15.4612383 10.5148527 15.4612383"></polygon>
                    <path d="M16,1.93742539 L13.3956796,1.93742539 L12.4444444,1.93742539 L12.4444444,1.13115367 C12.4444444,0.503839644 11.8636486,0.0131492205 11.121447,0.0131492205 L5.00258398,0.0131492205 C4.26038243,0.0131492205 3.67958656,0.504481069 3.67958656,1.13115367 L3.67958656,1.93742539 L2.72835142,1.93742539 L0.0135607235,1.93742539 L0.0135607235,3.22027617 L1.40535401,3.22027617 L1.40535401,16.7485791 C1.40535401,17.4387528 1.99871835,18 2.72835142,18 L13.3950181,18 C14.1246512,18 14.7180155,17.4387528 14.7180155,16.7485791 L14.7180155,3.22027617 L15.9993385,3.22027617 L15.9993385,1.93742539 L16,1.93742539 Z M5.00258398,1.296 L11.121447,1.296 L11.121447,1.93742539 L5.00258398,1.93742539 L5.00258398,1.296 Z M13.4082481,16.7145835 C13.4082481,16.7145835 13.4049406,16.7171492 13.3956796,16.7171492 L2.72901292,16.7485791 L2.72901292,3.22027617 L5.00324548,3.22027617 L11.1221085,3.22027617 L13.3963411,3.22027617 L13.4082481,16.7145835 Z" id="Shape"></path>
                </g>
            </g>
        </g>
    </g>
</svg>