<?xml version="1.0" encoding="UTF-8"?>
<svg width="17px" height="17px" viewBox="0 0 17 17" version="1.1" xmlns="http://www.w3.org/2000/svg" xmlns:xlink="http://www.w3.org/1999/xlink">
    <!-- Generator: Sketch 47.1 (45422) - http://www.bohemiancoding.com/sketch -->
    <title>编辑</title>
    <desc>Created with Sketch.</desc>
    <defs></defs>
    <g id="Page-1" stroke="none" stroke-width="1" fill="none" fill-rule="evenodd">
        <g id="树表-地址" transform="translate(-393.000000, -136.000000)" fill-rule="nonzero" fill="#63696B">
            <g id="Group-7" transform="translate(201.000000, 125.000000)">
                <g id="编辑" transform="translate(192.000000, 11.000000)">
                    <path d="M7.89314904,0 L1.21370192,0 C0.543509615,0 0,0.543509615 0,1.21370192 L0,15.7842548 C0,16.4544471 0.543509615,16.9979567 1.21370192,16.9979567 L15.7842548,16.9979567 C16.4544471,16.9979567 16.9979567,16.4544471 16.9979567,15.7842548 L16.9979567,9.10685096 C16.9979567,8.9515625 16.9387019,8.79627404 16.8201923,8.67776442 C16.7016827,8.55925481 16.5463942,8.5 16.3911058,8.5 C16.2358173,8.5 16.0805288,8.55925481 15.9620192,8.67776442 C15.8435096,8.79627404 15.7842548,8.9515625 15.7842548,9.10685096 L15.7842548,15.7862981 L1.21370192,15.7862981 L1.21370192,1.21370192 L7.89314904,1.21370192 C8.0484375,1.21370192 8.20372596,1.15444712 8.32223558,1.0359375 C8.44074519,0.917427885 8.5,0.762139423 8.5,0.606850962 C8.5,0.4515625 8.44074519,0.296274038 8.32223558,0.177764423 C8.20372596,0.0592548077 8.0484375,2.90366022e-16 7.89314904,0 Z" id="Shape"></path>
                    <path d="M15.1794471,1.21370192 C15.2734375,1.21370192 15.4532452,1.23617788 15.6085337,1.39146635 C15.8455529,1.62848558 15.8455529,2.01262019 15.6085337,2.24963942 L8.56129808,9.296875 L7.47019231,9.53389423 L7.70516827,8.43665865 L14.7503606,1.39146635 C14.9036058,1.23822115 15.0854567,1.21370192 15.1794471,1.21370192 L15.1794471,1.21370192 Z M15.1794471,5.80732044e-16 C14.7135817,5.80732044e-16 14.2477163,0.177764423 13.8921875,0.533293269 L6.84699519,7.57848558 C6.68149038,7.74399038 6.56706731,7.95444712 6.51802885,8.18329327 L6.07872596,10.2429087 C6.02560096,10.6147837 6.31574519,10.9355769 6.67740385,10.9355769 C6.70600962,10.9355769 6.73461538,10.9335337 6.76526442,10.9294471 L8.82079327,10.4840144 C9.04963942,10.434976 9.25805288,10.3205529 9.42151442,10.1550481 L16.4667067,3.10985577 C17.1777644,2.39879808 17.1777644,1.24435096 16.4667067,0.533293269 C16.1111779,0.177764423 15.6453125,0 15.1794471,5.80732044e-16 Z" id="Shape"></path>
                </g>
            </g>
        </g>
    </g>
</svg>