<?xml version="1.0" encoding="UTF-8"?>
<svg width="67px" height="50px" viewBox="0 0 67 50" version="1.1" xmlns="http://www.w3.org/2000/svg" xmlns:xlink="http://www.w3.org/1999/xlink">
    <!-- Generator: Sketch 47.1 (45422) - http://www.bohemiancoding.com/sketch -->
    <title>失败图标</title>
    <desc>Created with Sketch.</desc>
    <defs></defs>
    <g id="Page-1" stroke="none" stroke-width="1" fill="none" fill-rule="evenodd">
        <g id="拖拽上传-copy-4" transform="translate(-67.000000, -36.000000)" fill="#F44336">
            <g id="失败" transform="translate(67.000000, 36.000000)">
                <path d="M16,49.9925689 C7.11860894,49.7282373 1.42108547e-14,42.4454388 1.42108547e-14,33.5 C1.42108547e-14,24.3873016 7.38730163,17 16.5,17 C16.6698318,17 16.8390643,17.0025658 17.0076609,17.0076609 C17.0025658,16.8390643 17,16.6698318 17,16.5 C17,7.38730163 24.3873016,0 33.5,0 C42.6126984,0 50,7.38730163 50,16.5 C50,16.6698318 49.9974342,16.8390643 49.9923391,17.0076609 C50.1609357,17.0025658 50.3301682,17 50.5,17 C59.6126984,17 67,24.3873016 67,33.5 C67,42.4454388 59.8813911,49.7282373 51,49.9925689 L51,50 L16,50 L16,49.9925689 Z M26.2387492,26.5947064 C28.5797457,26.5947064 30.4774983,24.4468582 30.4774983,21.7973532 C30.4774983,19.1478482 28.5797457,17 26.2387492,17 C23.8977527,17 22,19.1478482 22,21.7973532 C22,24.4468582 23.8977527,26.5947064 26.2387492,26.5947064 Z M39.7621608,26.5947064 C42.1026548,26.5947064 44,24.4468582 44,21.7973532 C44,19.1478482 42.1026548,17 39.7621608,17 C37.4216668,17 35.5243216,19.1478482 35.5243216,21.7973532 C35.5243216,24.4468582 37.4216668,26.5947064 39.7621608,26.5947064 Z M24.3122932,42 C24.1111847,42 23.9073461,41.9671028 23.7053276,41.8956688 C22.7261747,41.5488383 22.2047485,40.4472517 22.5405361,39.4358974 C24.333223,34.0332356 29.5538551,31.8131438 33.8963435,32.0142868 C38.6856387,32.2332882 42.4584712,35.2100158 43.5076936,39.5994436 C43.7561218,40.6371156 43.1427862,41.6870065 42.1372435,41.9426649 C41.1307909,42.1992631 40.1161482,41.5648169 39.86772,40.5271449 C39.0905857,37.2740808 36.1877068,35.9957891 33.7316347,35.8829987 C30.7841661,35.7532897 27.2515718,37.1829085 26.0876903,40.690691 C25.8192422,41.4952628 25.0921575,42 24.3122932,42 Z" id="失败图标"></path>
            </g>
        </g>
    </g>
</svg>