<?xml version="1.0" encoding="UTF-8"?>
<svg width="67px" height="50px" viewBox="0 0 67 50" version="1.1" xmlns="http://www.w3.org/2000/svg" xmlns:xlink="http://www.w3.org/1999/xlink">
    <!-- Generator: Sketch 47.1 (45422) - http://www.bohemiancoding.com/sketch -->
    <title>成功图标</title>
    <desc>Created with Sketch.</desc>
    <defs></defs>
    <g id="Page-1" stroke="none" stroke-width="1" fill="none" fill-rule="evenodd">
        <g id="拖拽上传-copy-3" transform="translate(-67.000000, -36.000000)" fill="#4CAF50">
            <g id="成功" transform="translate(67.000000, 36.000000)">
                <path d="M16,49.9925689 C7.11860894,49.7282373 1.42108547e-14,42.4454388 1.42108547e-14,33.5 C1.42108547e-14,24.3873016 7.38730163,17 16.5,17 C16.6698318,17 16.8390643,17.0025658 17.0076609,17.0076609 C17.0025658,16.8390643 17,16.6698318 17,16.5 C17,7.38730163 24.3873016,0 33.5,0 C42.6126984,0 50,7.38730163 50,16.5 C50,16.6698318 49.9974342,16.8390643 49.9923391,17.0076609 C50.1609357,17.0025658 50.3301682,17 50.5,17 C59.6126984,17 67,24.3873016 67,33.5 C67,42.4454388 59.8813911,49.7282373 51,49.9925689 L51,50 L16,50 L16,49.9925689 Z M42.8021453,27.4935621 L40.5730469,25.2033559 C40.3091404,24.9322147 39.881488,24.9322147 39.6175815,25.2033559 L30.3318871,34.7436053 L26.3824937,30.6861918 C26.1185872,30.4150506 25.6908746,30.4150506 25.4270283,30.6861918 L23.1979299,32.9763362 C22.9340234,33.2474773 22.9340234,33.6869151 23.1979299,33.9579944 L29.8541844,40.7964742 C29.9859873,40.9321375 30.1589372,41 30.3318871,41 C30.504837,41 30.6777868,40.9321375 30.8095897,40.7964742 L42.8021453,28.4751585 C42.9287747,28.3450577 43,28.1683555 43,27.9843603 C43,27.800365 42.9287747,27.6236629 42.8021453,27.4935621 Z" id="成功图标"></path>
            </g>
        </g>
    </g>
</svg>