<?xml version="1.0" encoding="UTF-8"?>
<svg width="67px" height="50px" viewBox="0 0 67 50" version="1.1" xmlns="http://www.w3.org/2000/svg" xmlns:xlink="http://www.w3.org/1999/xlink">
    <!-- Generator: Sketch 47.1 (45422) - http://www.bohemiancoding.com/sketch -->
    <title>图标上传中</title>
    <desc>Created with Sketch.</desc>
    <defs></defs>
    <g id="Page-1" stroke="none" stroke-width="1" fill="none" fill-rule="evenodd">
        <g id="拖拽上传-copy-2" transform="translate(-67.000000, -36.000000)" fill="#D8D8D8">
            <g id="上传中" transform="translate(67.000000, 36.000000)">
                <path d="M37,50 L51,50 L51,49.9925689 C59.8813911,49.7282373 67,42.4454388 67,33.5 C67,24.3873016 59.6126984,17 50.5,17 C50.3301682,17 50.1609357,17.0025658 49.9923391,17.0076609 C49.9974342,16.8390643 50,16.6698318 50,16.5 C50,7.38730163 42.6126984,0 33.5,0 C24.3873016,0 17,7.38730163 17,16.5 C17,16.6698318 17.0025658,16.8390643 17.0076609,17.0076609 C16.8390643,17.0025658 16.6698318,17 16.5,17 C7.38730163,17 1.42108547e-14,24.3873016 1.42108547e-14,33.5 C1.42108547e-14,42.4454388 7.11860894,49.7282373 16,49.9925689 L16,50 L31,50 L31,38.8232422 L22.0776367,38.8232422 L34.0000003,20.7466281 L45.9223633,38.8232422 L37,38.8232422 L37,50 Z" id="图标上传中"></path>
            </g>
        </g>
    </g>
</svg>